<svg version="1.0" xmlns="http://www.w3.org/2000/svg"
 width="302.000000pt" height="105.000000pt" viewBox="0 0 302.000000 105.000000"
 preserveAspectRatio="xMidYMid meet">

<g transform="translate(0.000000,105.000000) scale(0.100000,-0.100000)"
fill="#000000" stroke="none">
<path d="M1655 941 c-16 -8 -17 -10 -4 -10 9 -1 47 -10 83 -22 49 -15 79 -32
112 -63 25 -24 43 -38 40 -30 -4 9 2 14 15 14 65 0 -55 71 -161 95 -63 15 -64
15 -14 10 77 -8 142 -30 209 -71 48 -29 73 -37 125 -41 62 -4 64 -3 45 13 -34
28 -137 71 -213 88 -90 20 -211 29 -237 17z"/>
<path d="M1426 914 c-105 -25 -157 -85 -122 -139 19 -28 20 -35 6 -35 -18 0
-51 64 -47 93 3 26 2 27 -40 27 -35 0 -43 -3 -43 -18 0 -47 66 -103 150 -127
24 -7 24 -7 5 9 -11 8 -15 16 -9 16 6 0 9 12 6 28 -5 39 28 77 85 96 57 19
183 20 236 2 41 -15 47 -6 18 23 -41 41 -139 51 -245 25z"/>
<path d="M1723 885 c27 -19 40 -37 49 -69 13 -48 53 -74 76 -50 18 19 15 30
-18 68 -29 33 -69 57 -120 71 -20 5 -17 1 13 -20z"/>
<path d="M1706 849 c5 -31 2 -39 -25 -62 -18 -15 -51 -32 -74 -38 -43 -11
-191 -7 -236 7 -21 6 -22 5 -13 -13 17 -31 70 -48 152 -48 96 0 163 20 206 60
40 38 43 64 9 102 l-24 28 5 -36z"/>
<path d="M1121 796 c-8 -10 -9 -16 -1 -21 13 -8 30 3 30 21 0 18 -14 18 -29 0z"/>
<path d="M935 785 c80 -68 392 -141 451 -106 16 9 12 10 -21 5 -70 -10 -239
42 -295 92 -9 7 -47 16 -85 19 -66 6 -69 5 -50 -10z"/>
<path d="M1151 778 c-11 -17 -11 -22 1 -29 29 -19 123 -50 167 -55 45 -5 44
-5 -22 19 -38 13 -82 37 -100 55 -32 31 -33 31 -46 10z"/>
<path d="M242 448 c-17 -17 -15 -48 3 -48 8 0 15 7 15 15 0 8 5 15 10 15 18 0
10 -38 -15 -76 -14 -20 -25 -47 -25 -60 0 -21 5 -24 40 -24 29 0 40 4 40 15 0
9 -9 15 -25 15 -14 0 -25 3 -25 7 0 3 11 21 25 39 38 50 30 114 -15 114 -9 0
-21 -5 -28 -12z"/>
<path d="M430 365 c0 -78 3 -95 15 -95 10 0 15 11 16 33 l1 32 9 -32 c5 -18
16 -33 24 -33 12 0 15 18 15 96 0 71 -3 95 -12 92 -7 -3 -15 -15 -18 -29 l-6
-24 -7 28 c-4 15 -14 27 -22 27 -12 0 -15 -18 -15 -95z"/>
<path d="M830 365 c0 -78 3 -95 15 -95 11 0 15 11 15 38 0 32 5 41 25 50 20 9
25 19 25 46 0 37 -20 56 -59 56 -20 0 -21 -6 -21 -95z m50 40 c0 -14 -4 -25
-10 -25 -5 0 -10 11 -10 25 0 14 5 25 10 25 6 0 10 -11 10 -25z"/>
<path d="M1030 364 c0 -72 3 -95 13 -92 6 3 14 22 17 44 l5 39 8 -42 c5 -28
12 -43 22 -43 11 0 14 7 9 25 -8 30 -7 60 1 101 8 37 -14 64 -51 64 -24 0 -24
-1 -24 -96z m50 41 c0 -14 -4 -25 -10 -25 -5 0 -10 11 -10 25 0 14 5 25 10 25
6 0 10 -11 10 -25z"/>
<path d="M1230 434 c-11 -28 -13 -97 -4 -132 9 -31 53 -41 71 -17 15 22 18
128 3 156 -16 29 -58 25 -70 -7z m50 -70 c0 -48 -3 -65 -12 -62 -13 5 -23 89
-14 114 13 35 26 9 26 -52z"/>
<path d="M1420 366 c0 -79 3 -96 15 -96 11 0 15 11 15 40 0 29 4 40 15 40 8 0
15 7 15 15 0 8 -7 15 -15 15 -24 0 -19 48 5 52 35 5 27 23 -12 26 l-38 3 0
-95z"/>
<path d="M1610 365 l0 -95 35 0 c24 0 35 5 35 15 0 8 -9 15 -20 15 -15 0 -20
7 -20 25 0 16 6 25 15 25 8 0 15 7 15 15 0 8 -7 15 -15 15 -9 0 -15 9 -15 25
0 18 5 25 20 25 11 0 20 7 20 15 0 10 -11 15 -35 15 l-35 0 0 -95z"/>
<path d="M1812 448 c-20 -20 -14 -63 13 -88 25 -23 34 -60 15 -60 -5 0 -10 7
-10 15 0 8 -7 15 -16 15 -21 0 -15 -39 9 -54 48 -30 77 52 32 94 -25 23 -34
60 -15 60 6 0 10 -7 10 -15 0 -8 7 -15 15 -15 18 0 20 31 3 48 -7 7 -19 12
-28 12 -9 0 -21 -5 -28 -12z"/>
<path d="M1994 447 c-10 -27 1 -170 14 -175 9 -3 12 20 12 92 0 59 -4 96 -10
96 -6 0 -13 -6 -16 -13z"/>
<path d="M2151 446 c-7 -9 -11 -42 -9 -87 2 -55 7 -74 21 -83 12 -8 22 -8 35
0 13 9 18 28 20 83 3 76 -6 101 -38 101 -10 0 -23 -6 -29 -14z m39 -81 c0 -37
-4 -65 -10 -65 -6 0 -10 28 -10 65 0 37 4 65 10 65 6 0 10 -28 10 -65z"/>
<path d="M2340 365 c0 -78 3 -95 15 -95 10 0 15 10 16 28 l1 27 10 -27 c5 -16
16 -28 24 -28 11 0 14 20 14 95 0 78 -3 95 -15 95 -10 0 -15 -11 -16 -32 l-1
-33 -9 33 c-5 17 -16 32 -24 32 -12 0 -15 -18 -15 -95z"/>
<path d="M2551 385 c-6 -42 -11 -85 -11 -95 0 -24 15 -26 24 -5 3 8 10 15 16
15 5 0 10 -7 10 -15 0 -8 7 -15 15 -15 18 0 18 -3 4 79 -16 102 -18 111 -33
111 -9 0 -17 -24 -25 -75z"/>
<path d="M2734 447 c-3 -8 -4 -49 -2 -93 3 -79 3 -79 32 -82 41 -5 57 14 23
27 -26 10 -27 13 -27 86 0 45 -4 75 -10 75 -6 0 -13 -6 -16 -13z"/>
<path d="M648 389 c-22 -24 -22 -25 2 -49 l20 -20 20 20 c11 11 20 22 20 25 0
6 -38 46 -42 44 -2 0 -11 -9 -20 -20z"/>
</g>
</svg>
